<svg xmlns="http://www.w3.org/2000/svg" width="49.607" height="49.696" viewBox="0 0 49.607 49.696">
  <path id="Icon_feather-phone-call" data-name="Icon feather-phone-call" d="M31.937,10.394a11.118,11.118,0,0,1,8.783,8.783M31.937,1.5A20.013,20.013,0,0,1,49.615,19.156M47.391,36.9v6.671a4.447,4.447,0,0,1-4.847,4.447,44.005,44.005,0,0,1-19.19-6.826A43.361,43.361,0,0,1,10.012,27.85,44.005,44.005,0,0,1,3.186,8.571,4.447,4.447,0,0,1,7.611,3.724h6.671a4.447,4.447,0,0,1,4.447,3.825A28.551,28.551,0,0,0,20.285,13.8a4.447,4.447,0,0,1-1,4.692l-2.824,2.824A35.578,35.578,0,0,0,29.8,34.654l2.824-2.824a4.447,4.447,0,0,1,4.692-1,28.551,28.551,0,0,0,6.248,1.557A4.447,4.447,0,0,1,47.391,36.9Z" transform="translate(-1.666 0.156)" fill="none" stroke="#fff" stroke-linecap="round" stroke-linejoin="round" stroke-width="3"/>
</svg>
