<svg xmlns="http://www.w3.org/2000/svg" width="198" height="198" viewBox="0 0 198 198">
  <g id="Group_91" data-name="Group 91" transform="translate(-524 -853)">
    <circle id="Ellipse_2" data-name="Ellipse 2" cx="99" cy="99" r="99" transform="translate(524 853)" fill="#fff" opacity="0.5"/>
    <circle id="Ellipse_3" data-name="Ellipse 3" cx="76" cy="76" r="76" transform="translate(547 876)" fill="#05271a"/>
    <g id="show-ticket-4871213" transform="translate(480.074 867.985)">
      <path id="Path_62" data-name="Path 62" d="M176.055,122.466H118.115a1.633,1.633,0,0,1-1.633-1.633,5.435,5.435,0,0,0-5.429-5.43,1.633,1.633,0,0,1-1.633-1.634V100.977l-8.029-11.8a1.635,1.635,0,0,1,.412-2.256,5.453,5.453,0,0,0,1.335-7.565,1.633,1.633,0,0,1,.4-2.273l35.345-24.752a.194.194,0,0,1,.02-.013l.02-.014,12.071-8.451a1.633,1.633,0,0,1,2.273.4,5.453,5.453,0,0,0,7.563,1.336,1.633,1.633,0,0,1,2.273.4l15.462,22.085a1.633,1.633,0,0,1-.4,2.273,5.453,5.453,0,0,0-1.335,7.564,1.646,1.646,0,0,1,.257.582,1.63,1.63,0,0,1,.593,1.259,5.434,5.434,0,0,0,5.428,5.429,1.634,1.634,0,0,1,1.634,1.634v26.961a1.634,1.634,0,0,1-1.634,1.634,5.434,5.434,0,0,0-5.428,5.43,1.634,1.634,0,0,1-1.634,1.633ZM162.925,119.2h11.653a8.721,8.721,0,0,1,6.908-6.909V88.285a8.721,8.721,0,0,1-6.908-6.909H162.925v2.956a1.633,1.633,0,0,1-3.266,0V81.376H158.7a1.619,1.619,0,0,1-1.061,0H119.6a8.722,8.722,0,0,1-6.908,6.909v24.006A8.722,8.722,0,0,1,119.6,119.2h40.068V116.24a1.633,1.633,0,1,1,3.266,0V119.2Zm-58.01-30.654,4.508,6.627V86.8a1.634,1.634,0,0,1,1.633-1.634,5.435,5.435,0,0,0,5.429-5.43,1.633,1.633,0,0,1,1.633-1.633h3.32l-.713-3.173a1.631,1.631,0,0,1,2.473-1.731l7.078,4.536,7.078-4.064a1.634,1.634,0,0,1,2.4,1.788l-.616,2.644h15.837l-.773-1.1a1.632,1.632,0,1,1,2.674-1.871l2.082,2.976h14.287a8.717,8.717,0,0,1,1.8-9.383L161.281,49.065a8.744,8.744,0,0,1-9.622-1.694l-9.545,6.684,1.7,2.423a1.632,1.632,0,1,1-2.674,1.871l-1.7-2.423L106.619,78.911a8.739,8.739,0,0,1-1.71,9.637ZM124.8,78.112l-.027-.017v.017Zm4.441,36.654a1.63,1.63,0,0,1-1.59-1.988l1.851-8.267-6.195-5.556a1.634,1.634,0,0,1,.944-2.842l8.13-.733,3.2-7.779a1.632,1.632,0,0,1,3.018,0l3.2,7.779,8.13.733a1.634,1.634,0,0,1,.944,2.842l-6.195,5.556,1.851,8.267a1.631,1.631,0,0,1-2.45,1.744l-6.981-4.332-6.982,4.332a1.626,1.626,0,0,1-.86.244Zm7.841-8.127a1.629,1.629,0,0,1,.86.245l4.542,2.818-1.212-5.413a1.627,1.627,0,0,1,.5-1.57l4.116-3.692-5.382-.486a1.628,1.628,0,0,1-1.362-1l-2.065-5.024-2.065,5.024a1.628,1.628,0,0,1-1.362,1l-5.382.486,4.116,3.692a1.629,1.629,0,0,1,.5,1.57l-1.212,5.413,4.542-2.818a1.626,1.626,0,0,1,.86-.245Zm24.207,6.7a1.633,1.633,0,0,1-1.633-1.633v-4.589a1.633,1.633,0,1,1,3.266,0V111.7A1.633,1.633,0,0,1,161.294,113.337Zm0-9.124a1.633,1.633,0,0,1-1.633-1.634V97.99a1.633,1.633,0,1,1,3.266,0v4.589A1.634,1.634,0,0,1,161.294,104.213Zm0-9.125a1.633,1.633,0,0,1-1.633-1.634V88.866a1.633,1.633,0,1,1,3.266,0v4.589A1.634,1.634,0,0,1,161.294,95.088Zm-8.347-21.1a1.626,1.626,0,0,1-1.338-.7l-2.631-3.759a1.632,1.632,0,1,1,2.674-1.871l2.63,3.759a1.632,1.632,0,0,1-.4,2.273,1.614,1.614,0,0,1-.934.295Zm-5.234-7.475a1.626,1.626,0,0,1-1.339-.7l-2.63-3.759a1.632,1.632,0,1,1,2.674-1.871l2.631,3.759a1.632,1.632,0,0,1-1.336,2.567Z" transform="translate(0)" fill="#fff"/>
    </g>
  </g>
</svg>
