<svg xmlns="http://www.w3.org/2000/svg" width="198" height="198" viewBox="0 0 198 198">
  <g id="Group_92" data-name="Group 92" transform="translate(-1192 -853)">
    <circle id="Ellipse_5" data-name="Ellipse 5" cx="99" cy="99" r="99" transform="translate(1192 853)" fill="#fff" opacity="0.5"/>
    <circle id="Ellipse_4" data-name="Ellipse 4" cx="76" cy="76" r="76" transform="translate(1215 876)" fill="#05271a"/>
    <g id="Direction-travel-4517992" transform="translate(1250.918 911.545)">
      <circle id="Ellipse_1" data-name="Ellipse 1" cx="5.068" cy="5.068" r="5.068" transform="translate(19.811 40.817)" fill="#fff"/>
      <path id="Path_63" data-name="Path 63" d="M5.01,45.505H6.263v6.263H0V69.3H2.505V66.8H6.263V69.3H8.768v-23.8H10.02V43H5.01Z" transform="translate(0 10.607)" fill="#fff"/>
      <path id="Path_64" data-name="Path 64" d="M57.02,28.556s10.02-8.668,10.02-16.283S62.557,1,57.02,1,47,4.657,47,12.273,57.02,28.556,57.02,28.556ZM52.01,11.02a5.01,5.01,0,1,1,5.01,5.01A5.009,5.009,0,0,1,52.01,11.02Z" transform="translate(11.87)" fill="#fff"/>
      <path id="Path_65" data-name="Path 65" d="M47.02,41C41.484,41,37,44.657,37,52.273S47.02,68.556,47.02,68.556s10.02-8.668,10.02-16.283S52.557,41,47.02,41Zm0,15.031a5.01,5.01,0,1,1,5.01-5.01A5.009,5.009,0,0,1,47.02,56.031Z" transform="translate(9.344 10.102)" fill="#fff"/>
      <path id="Path_66" data-name="Path 66" d="M11.02,28.556s10.02-8.668,10.02-16.283S16.557,1,11.02,1,1,4.657,1,12.273,11.02,28.556,11.02,28.556ZM6.01,11.02a5.01,5.01,0,1,1,5.01,5.01A5.009,5.009,0,0,1,6.01,11.02Z" transform="translate(0.253)" fill="#fff"/>
      <rect id="Rectangle_1790" data-name="Rectangle 1790" width="2.896" height="2.172" transform="translate(33.566 14.031)" fill="#fff"/>
      <rect id="Rectangle_1791" data-name="Rectangle 1791" width="2.896" height="2.172" transform="translate(43.701 14.031)" fill="#fff"/>
      <rect id="Rectangle_1792" data-name="Rectangle 1792" width="2.896" height="2.172" transform="translate(23.431 14.031)" fill="#fff"/>
      <rect id="Rectangle_1793" data-name="Rectangle 1793" width="2.896" height="2.172" transform="translate(28.498 14.031)" fill="#fff"/>
      <rect id="Rectangle_1794" data-name="Rectangle 1794" width="2.896" height="2.172" transform="translate(38.634 14.031)" fill="#fff"/>
      <rect id="Rectangle_1795" data-name="Rectangle 1795" width="2.896" height="2.172" transform="translate(48.769 14.031)" fill="#fff"/>
      <rect id="Rectangle_1796" data-name="Rectangle 1796" width="2.896" height="2.172" transform="translate(53.836 14.031)" fill="#fff"/>
      <path id="Path_67" data-name="Path 67" d="M51.922,31.792l.472-2.461a18.911,18.911,0,0,0-2.663-.314l-.116,2.5A16.293,16.293,0,0,1,51.922,31.792Z" transform="translate(12.53 7.075)" fill="#fff"/>
      <path id="Path_68" data-name="Path 68" d="M59.217,36.273A16.415,16.415,0,0,1,60.522,38.2L62.69,36.94a18.771,18.771,0,0,0-1.507-2.218Z" transform="translate(14.955 8.516)" fill="#fff"/>
      <path id="Path_69" data-name="Path 69" d="M64.214,40.976A18.8,18.8,0,0,0,63.4,38.42l-2.325.932a16.1,16.1,0,0,1,.708,2.215Z" transform="translate(15.423 9.45)" fill="#fff"/>
      <rect id="Rectangle_1797" data-name="Rectangle 1797" width="2.505" height="2.505" transform="translate(32.143 36.071)" fill="#fff"/>
      <rect id="Rectangle_1798" data-name="Rectangle 1798" width="2.505" height="2.505" transform="translate(47.173 36.071)" fill="#fff"/>
      <rect id="Rectangle_1799" data-name="Rectangle 1799" width="2.505" height="2.505" transform="translate(42.163 36.071)" fill="#fff"/>
      <rect id="Rectangle_1800" data-name="Rectangle 1800" width="2.505" height="2.505" transform="translate(52.184 36.071)" fill="#fff"/>
      <rect id="Rectangle_1801" data-name="Rectangle 1801" width="2.505" height="2.505" transform="translate(37.153 36.071)" fill="#fff"/>
      <rect id="Rectangle_1802" data-name="Rectangle 1802" width="2.505" height="2.505" transform="translate(57.194 36.071)" fill="#fff"/>
      <path id="Path_70" data-name="Path 70" d="M56.533,30.876a18.8,18.8,0,0,0-2.466-1.056l-.817,2.369a16.2,16.2,0,0,1,2.134.913Z" transform="translate(13.448 7.278)" fill="#fff"/>
      <path id="Path_71" data-name="Path 71" d="M57.038,54.534,58.587,56.5a18.7,18.7,0,0,0,1.983-1.8L58.756,52.97A16.57,16.57,0,0,1,57.038,54.534Z" transform="translate(14.405 13.125)" fill="#fff"/>
      <path id="Path_72" data-name="Path 72" d="M59.592,51.938l2.04,1.453a18.724,18.724,0,0,0,1.4-2.287L60.8,49.954A16.4,16.4,0,0,1,59.592,51.938Z" transform="translate(15.05 12.363)" fill="#fff"/>
      <rect id="Rectangle_1803" data-name="Rectangle 1803" width="2.505" height="2.505" transform="translate(27.133 36.071)" fill="#fff"/>
      <path id="Path_73" data-name="Path 73" d="M64.436,42.572l-2.494.235q.071.767.073,1.553,0,.389-.019.772l2.5.118q.021-.442.021-.889C64.52,43.761,64.492,43.159,64.436,42.572Z" transform="translate(15.643 10.499)" fill="#fff"/>
      <path id="Path_74" data-name="Path 74" d="M61.289,48.7l2.369.817a18.8,18.8,0,0,0,.691-2.59l-2.46-.472A16.483,16.483,0,0,1,61.289,48.7Z" transform="translate(15.478 11.48)" fill="#fff"/>
      <path id="Path_75" data-name="Path 75" d="M53.834,56.276l.931,2.326a18.625,18.625,0,0,0,2.411-1.175L55.922,55.26A16.051,16.051,0,0,1,53.834,56.276Z" transform="translate(13.596 13.703)" fill="#fff"/>
      <path id="Path_76" data-name="Path 76" d="M60.057,33.484a19.018,19.018,0,0,0-2.065-1.7l-1.454,2.04A16.518,16.518,0,0,1,58.329,35.3Z" transform="translate(14.278 7.773)" fill="#fff"/>
      <path id="Path_77" data-name="Path 77" d="M2,20.782l0,.272a12.6,12.6,0,0,0,.248,2.5l2.455-.5a10.147,10.147,0,0,1-.2-2v-.217Z" transform="translate(0.505 4.996)" fill="#fff"/>
      <rect id="Rectangle_1804" data-name="Rectangle 1804" width="2.505" height="2.505" transform="translate(17.112 36.071)" fill="#fff"/>
      <path id="Path_78" data-name="Path 78" d="M6.293,26.193a9.961,9.961,0,0,1-1.131-1.91L2.877,25.31A12.516,12.516,0,0,0,4.291,27.7Z" transform="translate(0.727 5.88)" fill="#fff"/>
      <rect id="Rectangle_1805" data-name="Rectangle 1805" width="2.505" height="2.505" transform="translate(22.122 36.071)" fill="#fff"/>
      <path id="Path_79" data-name="Path 79" d="M9.433,31.155a12.578,12.578,0,0,0,2.747.408l.093-2.5a9.959,9.959,0,0,1-2.2-.328Z" transform="translate(2.382 7.004)" fill="#fff"/>
      <path id="Path_80" data-name="Path 80" d="M5.526,29.008a12.6,12.6,0,0,0,2.3,1.553l1.162-2.218A9.885,9.885,0,0,1,7.151,27.1Z" transform="translate(1.396 6.591)" fill="#fff"/>
      <rect id="Rectangle_1806" data-name="Rectangle 1806" width="2.896" height="2.172" transform="translate(35.014 71.223)" fill="#fff"/>
      <rect id="Rectangle_1807" data-name="Rectangle 1807" width="2.172" height="2.172" transform="translate(40.081 71.223)" fill="#fff"/>
      <rect id="Rectangle_1808" data-name="Rectangle 1808" width="2.172" height="2.172" transform="translate(45.149 71.223)" fill="#fff"/>
      <path id="Path_81" data-name="Path 81" d="M42.819,39.758,39.061,36,32.8,42.263H14.01A5.01,5.01,0,0,0,9,47.273V58.546h5.01V48.525h2.505V71.071h5.01V57.293h2.505V71.071h5.01V48.525h5.01Z" transform="translate(2.273 8.839)" fill="#fff"/>
    </g>
  </g>
</svg>
