<svg id="noun-cruise-3705343" xmlns="http://www.w3.org/2000/svg" width="28.662" height="28.483" viewBox="0 0 28.662 28.483">
  <path id="Path_85" data-name="Path 85" d="M22.72,41.134a.6.6,0,0,0,.418-.173,2.165,2.165,0,0,1,2.054-.573.585.585,0,0,0,.364-.024,15.162,15.162,0,0,0,4.992-3.219l4-3.858a.59.59,0,0,0,.137-.651.612.612,0,0,0-.555-.376H6.751a.6.6,0,0,0-.484.245.585.585,0,0,0-.084.531l2.2,6.874a.565.565,0,0,0,.585.412,2.188,2.188,0,0,1,1.6.627.591.591,0,0,0,.424.173h0a.617.617,0,0,0,.424-.173,2.219,2.219,0,0,1,3.064,0,.591.591,0,0,0,.424.173h0a.617.617,0,0,0,.424-.173,2.137,2.137,0,0,1,2.06-.561,2.1,2.1,0,0,1,1,.561.6.6,0,0,0,.842,0,2.168,2.168,0,0,1,3.064,0A.566.566,0,0,0,22.72,41.134Zm-1.953-2a3.4,3.4,0,0,0-1.959.621,3.194,3.194,0,0,0-1.141-.52,3.377,3.377,0,0,0-2.771.52,3.444,3.444,0,0,0-3.912,0,3.361,3.361,0,0,0-1.6-.6l-1.821-5.7H32.645l-2.926,2.831a13.994,13.994,0,0,1-4.437,2.9,3.33,3.33,0,0,0-2.562.567A3.385,3.385,0,0,0,20.767,39.134Z" transform="translate(-6.154 -16.672)" fill="#fff"/>
  <path id="Path_86" data-name="Path 86" d="M22.228,30.252H37.815a.6.6,0,0,0,.52-.3.59.59,0,0,0-.012-.6l-2.944-4.754a.6.6,0,0,0-.508-.281H22.228a.6.6,0,0,0-.6.6v4.754A.6.6,0,0,0,22.228,30.252Zm14.518-1.194H22.825V25.5H34.536Z" transform="translate(-19.081 -13.47)" fill="#fff"/>
  <path id="Path_87" data-name="Path 87" d="M36.477,22.054H39.72a.6.6,0,0,0,.6-.6v-5.1a.6.6,0,0,0-.6-.6H36.477a.6.6,0,0,0-.6.6v5.1A.6.6,0,0,0,36.477,22.054Zm2.646-1.194H37.074V16.954h2.048Z" transform="translate(-29.496 -10.026)" fill="#fff"/>
  <path id="Path_88" data-name="Path 88" d="M20.967,38.724h1.356a.6.6,0,0,0,0-1.194H20.967a.6.6,0,0,0,0,1.194Z" transform="translate(-2.836 -18.795)" fill="#fff"/>
  <path id="Path_89" data-name="Path 89" d="M28.017,38.724h1.356a.6.6,0,0,0,0-1.194H28.017a.6.6,0,1,0,0,1.194Z" transform="translate(-14.097 -18.795)" fill="#fff"/>
  <path id="Path_90" data-name="Path 90" d="M35.067,38.724h1.356a.6.6,0,0,0,0-1.194H35.067a.6.6,0,0,0,0,1.194Z" transform="translate(-25.357 -18.795)" fill="#fff"/>
  <path id="Path_91" data-name="Path 91" d="M42.117,38.724h1.356a.6.6,0,0,0,0-1.194H42.117a.6.6,0,0,0,0,1.194Z" transform="translate(-36.617 -18.795)" fill="#fff"/>
  <path id="Path_92" data-name="Path 92" d="M25.918,45.774a.612.612,0,0,0,.424-.173,2.188,2.188,0,0,1,3.075,0,.6.6,0,0,0,.842,0,2.173,2.173,0,0,1,2.884-.161.6.6,0,1,0,.741-.932,3.362,3.362,0,0,0-4.049-.1,3.383,3.383,0,0,0-3.912,0,3.16,3.16,0,0,0-1.153-.526,3.348,3.348,0,0,0-2.759.526,3.383,3.383,0,0,0-3.912,0,3.194,3.194,0,0,0-1.141-.52,3.377,3.377,0,0,0-2.771.52,3.444,3.444,0,0,0-3.912,0,3.385,3.385,0,0,0-4.049.1.6.6,0,1,0,.746.938,2.136,2.136,0,0,1,1.278-.466,2.106,2.106,0,0,1,1.606.627.591.591,0,0,0,.424.173h0a.617.617,0,0,0,.424-.173,2.219,2.219,0,0,1,3.064,0,.591.591,0,0,0,.424.173h0a.617.617,0,0,0,.424-.173,2.137,2.137,0,0,1,2.06-.561,2.1,2.1,0,0,1,1,.561.6.6,0,0,0,.842,0,2.181,2.181,0,0,1,3.07,0,.6.6,0,0,0,.842,0,2.178,2.178,0,0,1,3.07-.006A.574.574,0,0,0,25.918,45.774Z" transform="translate(-5.446 -21.312)" fill="#fff"/>
  <path id="Path_93" data-name="Path 93" d="M32.334,13.43a3.377,3.377,0,0,0,2.1-.729.6.6,0,1,0-.741-.932,2.173,2.173,0,0,1-2.884-.161,3.377,3.377,0,0,0-4.76,0,.6.6,0,0,0,.842.842,2.188,2.188,0,0,1,3.075,0A3.35,3.35,0,0,0,32.334,13.43Z" transform="translate(-17.858 -7.958)" fill="#fff"/>
  <path id="Path_94" data-name="Path 94" d="M25.314,8.966a3.377,3.377,0,0,0,2.1-.729.6.6,0,0,0-.741-.932,2.18,2.18,0,0,1-2.884-.167,3.377,3.377,0,0,0-4.76,0,.6.6,0,1,0,.842.842,2.188,2.188,0,0,1,3.075,0A3.352,3.352,0,0,0,25.314,8.966Z" transform="translate(-6.645 -6.157)" fill="#fff"/>
  <path id="Path_95" data-name="Path 95" d="M18.1,52.491a.623.623,0,0,0,.424-.173,2.173,2.173,0,0,1,3.064,0,.6.6,0,0,0,.842,0,2.181,2.181,0,0,1,3.07,0,.6.6,0,0,0,.842,0,2.188,2.188,0,0,1,3.075,0,.6.6,0,0,0,.842,0,2.173,2.173,0,0,1,2.884-.161.6.6,0,0,0,.836-.1.6.6,0,0,0-.1-.842,3.371,3.371,0,0,0-4.049-.1,3.383,3.383,0,0,0-3.912,0,3.383,3.383,0,0,0-3.912,0,3.383,3.383,0,0,0-3.912,0,3.241,3.241,0,0,0-1.141-.52,3.4,3.4,0,0,0-2.771.52,3.364,3.364,0,0,0-3.912,0,3.37,3.37,0,0,0-4.049.1.6.6,0,1,0,.746.938,2.167,2.167,0,0,1,2.884.167.6.6,0,0,0,.842,0,2.173,2.173,0,0,1,3.064,0,.6.6,0,0,0,.842,0,2.137,2.137,0,0,1,2.06-.561,2.1,2.1,0,0,1,1,.561A.66.66,0,0,0,18.1,52.491Z" transform="translate(-5.446 -24.015)" fill="#fff"/>
</svg>
