<svg xmlns="http://www.w3.org/2000/svg" width="46.086" height="49.377" viewBox="0 0 46.086 49.377">
  <path id="Icon_metro-mail-read" data-name="Icon metro-mail-read" d="M34.125,21.679H17.666v3.292H34.125ZM24.25,15.1H17.666v3.292H24.25ZM44,13.683V8.512H36.758L27.542,1.928,18.325,8.512H11.082v5.171L4.5,18.387V51.306H50.584V18.387L44,13.683ZM14.374,11.8H40.709V24.4L27.542,35.258,14.374,24.4V11.8ZM7.791,24.971l12.963,9.856L7.791,44.722V24.971Zm3.292,23.043L24.147,37.405l3.395,2.585,3.388-2.578L44,48.014H11.082Zm36.21-3.292L34.312,34.843l12.981-9.872V44.722Z" transform="translate(-4.499 -1.928)" fill="#fff"/>
</svg>
