<svg xmlns="http://www.w3.org/2000/svg" width="27.893" height="16.525" viewBox="0 0 27.893 16.525">
  <path id="Icon_simple-tripadvisor" data-name="Icon simple-tripadvisor" d="M26.806,12.73a9.08,9.08,0,0,1,1.366-2.808H23.509A16.966,16.966,0,0,0,14.2,7.335,17.284,17.284,0,0,0,4.65,9.951H.279a8.959,8.959,0,0,1,1.36,2.773,6.979,6.979,0,0,0,11.071,8.5l1.482,2.227,1.5-2.25a6.8,6.8,0,0,0,2.563,2.022,6.984,6.984,0,0,0,9.47-8.77,6.765,6.765,0,0,0-.941-1.726l.023.006Zm-3.685,9.381a5.532,5.532,0,0,1-6.576-2.173,5.322,5.322,0,0,1-.585-1.128,5.582,5.582,0,1,1,7.18,3.3h-.02ZM11.885,19.98a5.574,5.574,0,1,1,.959-3.119,5.044,5.044,0,0,1-.056.557,5.585,5.585,0,0,1-.9,2.581ZM3.724,16.787a3.451,3.451,0,1,0,3.455-3.445,3.457,3.457,0,0,0-3.455,3.445Zm14,0a3.448,3.448,0,1,0,3.449-3.445,3.451,3.451,0,0,0-3.449,3.445h0Zm-12.81,0a2.259,2.259,0,1,1-.017,0Zm13.985,0a2.256,2.256,0,1,1-.017,0Zm-4.71-8.232a16.3,16.3,0,0,1,6.766,1.35,6.988,6.988,0,0,0-2.215.418,7.027,7.027,0,0,0-4.551,6.032A7,7,0,0,0,7.356,9.873a17.2,17.2,0,0,1,6.784-1.318Z" transform="translate(-0.279 -7.335)"/>
</svg>
